<?xml version="1.0" standalone="no"?>
<!DOCTYPE svg PUBLIC "-//W3C//DTD SVG 20010904//EN"
 "http://www.w3.org/TR/2001/REC-SVG-20010904/DTD/svg10.dtd">
<svg version="1.0" xmlns="http://www.w3.org/2000/svg"
 width="200.000000pt" height="200.000000pt" viewBox="0 0 200.000000 200.000000"
 preserveAspectRatio="xMidYMid meet">
<metadata>
Created by potrace 1.14, written by Peter Selinger 2001-2017
</metadata>
<g transform="translate(0.000000,200.000000) scale(0.100000,-0.100000)"
fill="#000000" stroke="none">
<path d="M845 1947 c-66 -17 -95 -34 -95 -55 0 -9 32 -214 72 -454 39 -241 69
-440 66 -444 -4 -3 -151 -50 -328 -104 -178 -54 -327 -103 -332 -108 -17 -17
-27 -141 -18 -230 14 -149 -23 -117 383 -327 199 -103 378 -189 397 -192 31
-4 85 19 407 181 l371 185 11 51 c17 80 14 281 -4 307 -12 17 -91 47 -338 127
-177 57 -332 107 -344 111 l-23 6 0 464 c0 458 0 464 -21 475 -31 17 -149 21
-204 7z m186 -61 c-32 -38 -205 -47 -239 -12 -16 16 -15 16 17 5 38 -13 169
-7 198 10 26 15 37 13 24 -3z m147 -1042 c76 -50 -55 -119 -228 -119 -112 0
-160 15 -160 51 0 26 25 46 87 68 l41 14 6 -43 c8 -49 28 -60 96 -49 48 8 55
16 51 68 l-3 39 44 -7 c23 -4 53 -14 66 -22z m92 -93 c0 -10 -10 -27 -22 -38
-82 -74 -302 -105 -414 -58 -45 19 -94 62 -94 84 0 10 11 4 34 -18 41 -40 109
-61 195 -61 117 0 261 52 276 100 7 23 25 17 25 -9z m-568 -332 c202 -101 267
-129 298 -129 31 0 96 28 298 129 141 71 308 156 370 189 102 54 113 58 110
39 -2 -18 -72 -57 -368 -209 -314 -161 -371 -187 -410 -187 -39 0 -96 26 -410
187 -296 152 -366 191 -368 209 -3 19 8 15 110 -39 62 -33 229 -118 370 -189z
m418 -21 c-51 -41 -172 -48 -212 -11 -29 26 -21 33 19 16 49 -20 146 -12 182
15 32 24 43 6 11 -20z"/>
</g>
</svg>
